<?xml version="1.0" encoding="UTF-8"?>
<svg width="1200pt" height="1200pt" version="1.1" viewBox="0 0 1200 1200" xmlns="http://www.w3.org/2000/svg" fill="#ffffff">
 <g>
  <path d="m127.5 1199.2c-22.398 0-44.801-8.5508-61.801-25.602-34.148-34.148-34.148-89.699 0-123.85l611.45-588.95c9.8984-9.4492 25.801-9.3008 35.352 0.69922 9.5508 9.8984 9.3008 25.801-0.69922 35.352l-611.1 588.65c-14.301 14.301-14.301 38.148 0.35156 52.801 14.648 14.699 38.551 14.602 53.148 0l588.25-610.8c9.6992-10 25.5-10.102 35.352-0.69922 9.9492 9.5508 10.25 25.449 0.69922 35.352l-588.6 611.1c-17.25 17.301-39.848 25.949-62.398 25.949z"/>
  <path d="m789 749.85c-1.25 0-2.6016-0.10156-3.8984-0.30078-10.699-1.6992-19.102-10.102-20.801-20.801l-34.648-219.05-219.05-34.648c-10.703-1.75-19.102-10.152-20.801-20.801-1.6992-10.699 3.6992-21.301 13.348-26.199l197.55-100.65-34.648-219.05c-1.6484-10.699 3.6992-21.301 13.398-26.148 9.5508-5.0508 21.398-3.0508 29 4.6016l156.8 156.8 197.6-100.7c9.5508-5 21.398-3.0508 29 4.6016 7.6484 7.6484 9.5 19.398 4.6016 29l-100.7 197.6 156.85 156.85c7.6484 7.6484 9.5 19.398 4.6016 29-4.8984 9.6484-15.301 15.102-26.148 13.398l-219.05-34.699-100.7 197.55c-4.3594 8.4375-13.059 13.641-22.309 13.641zm-194.6-312.15 160.95 25.5c10.699 1.6992 19.102 10.102 20.801 20.801l25.5 161 74-145.2c4.8984-9.6484 15.352-15 26.148-13.398l161 25.551-115.3-115.3c-7.6484-7.6484-9.5-19.398-4.6016-29l73.949-145.2-145.2 73.949c-9.5508 5-21.398 3.0508-29-4.6016l-115.25-115.25 25.5 161c1.6484 10.699-3.6992 21.301-13.398 26.148z"/>
  <path d="m414.05 421.8c-1.25 0-2.6016-0.10156-3.8984-0.30078-10.703-1.6992-19.102-10.102-20.801-20.801l-19.602-123.75-123.75-19.598c-10.699-1.7031-19.102-10.102-20.801-20.801s3.6992-21.25 13.352-26.152l111.65-56.898-19.598-123.8c-1.6523-10.699 3.6992-21.25 13.348-26.148 9.5508-5 21.398-3.0508 29 4.6016l88.602 88.602 111.65-56.898c9.5508-5 21.398-3.0508 29 4.6016 7.6484 7.6484 9.5 19.398 4.6016 29l-56.801 111.69 88.551 88.602c7.6484 7.6484 9.5 19.398 4.6016 29.051-4.8984 9.6016-15.199 15.051-26.148 13.352l-123.8-19.652-56.898 111.65c-4.3008 8.5-13 13.652-22.25 13.652zm-84.301-201.8 65.75 10.398c10.699 1.7031 19.102 10.102 20.801 20.801l10.398 65.699 30.199-59.301c4.9023-9.5977 15.25-14.797 26.203-13.348l65.699 10.449-47-47.051c-7.6992-7.6484-9.5508-19.398-4.6016-29l30.199-59.301-59.297 30.203c-9.5508 5-21.398 3.0508-29-4.6016l-47.102-47.051 10.398 65.699c1.6484 10.699-3.6992 21.25-13.398 26.148z"/>
  <path d="m274.9 550.9c-7.8516 0-15.449-3.6992-20.199-10.301l-39.348-54.047-63.551 20.648c-10.25 3.3516-21.551-0.35156-27.949-9.1016-6.3984-8.75-6.3984-20.602 0-29.398l39.25-54.102-39.25-53.996c-6.3984-8.75-6.3984-20.602 0-29.398 6.3984-8.75 17.699-12.449 27.949-9.1016l63.551 20.648 39.301-54.051c6.3477-8.75 17.699-12.449 27.949-9.0977 10.297 3.3984 17.297 12.949 17.297 23.797v66.801l63.551 20.648c10.301 3.3516 17.301 12.949 17.301 23.801 0 10.852-7 20.398-17.301 23.801l-63.551 20.602v66.852c0 10.852-7 20.398-17.301 23.801-2.5469 0.79688-5.1484 1.1953-7.6992 1.1953zm-49.949-118.75c7.8516 0 15.449 3.6992 20.199 10.301l4.75 6.5v-8.0508c0-10.852 7-20.398 17.301-23.801l7.6484-2.5-7.6484-2.5c-10.348-3.3477-17.301-12.898-17.301-23.746v-8l-4.75 6.5c-6.3477 8.75-17.648 12.449-27.949 9.0977l-7.6992-2.5 4.75 6.5c6.3984 8.75 6.3984 20.602 0 29.398l-4.75 6.5039 7.6992-2.5c2.5508-0.80078 5.1523-1.2031 7.75-1.2031z"/>
 </g>
</svg>
